<svg version="1.1" xmlns="http://www.w3.org/2000/svg" width="32" height="32" viewBox="0 0 32 32">
<title>question</title>
<path d="M16 0c-8.822 0-16 7.178-16 16s7.178 16 16 16c8.822 0 16-7.178 16-16s-7.178-16-16-16zM16 30c-7.72 0-14-6.28-14-14s6.28-14 14-14c7.72 0 14 6.28 14 14s-6.28 14-14 14z"></path>
<path d="M16 6c-3.309 0-6 2.691-6 6v2h2v-2c0-2.206 1.794-4 4-4s4 1.794 4 4c0 1.501-0.8 2.914-2.087 3.687l-2.428 1.456c-0.301 0.181-0.485 0.506-0.485 0.857v4h2v-3.434l1.942-1.165c1.886-1.133 3.058-3.202 3.058-5.401 0-3.309-2.691-6-6-6z"></path>
<path d="M15 24h2v2h-2v-2z"></path>
</svg>
